<?xml version="1.0" encoding="UTF-8"?>
<svg id="Layer_1" xmlns="http://www.w3.org/2000/svg" version="1.1" viewBox="0 0 1920 1080">
  <!-- Generator: Adobe Illustrator 29.7.1, SVG Export Plug-In . SVG Version: 2.1.1 Build 8)  -->
  <defs>
    <style>
      .st0 {
        fill: #b04731;
      }
    </style>
  </defs>
  <path class="st0" d="M780.3,527.9v-125.6h43.1l28.7,64.5c.9,2,2,4.7,3.4,8.1,1.4,3.5,2.9,7.1,4.4,11,1.5,3.8,2.9,7.3,4.1,10.5h1.3c1.1-2.8,2.4-6,3.8-9.7,1.5-3.7,2.9-7.3,4.4-10.8,1.5-3.5,2.7-6.5,3.7-8.8l28.7-64.9h42.2v125.6h-27.8v-76.8c0-2.1,0-4.4,0-6.9,0-2.6.2-5.1.3-7.6.1-2.5.2-4.7.4-6.5h-1.5c-.6,1.8-1.4,4-2.4,6.6-1,2.6-2,5.1-2.9,7.7-1,2.6-1.9,4.8-2.7,6.8l-34.2,76.8h-27.1l-34.4-76.8c-1.1-2.4-2.2-5-3.2-7.6-1-2.6-2-5.1-2.7-7.5-.8-2.4-1.5-4.4-2.1-5.9h-1.5c.1,1.5.2,3.4.3,5.8,0,2.4.1,4.9.2,7.5,0,2.6,0,5.2,0,7.8v76.8h-26.7Z"/>
  <path class="st0" d="M1058.9,530.1c-16.7,0-31.1-2.5-43.1-7.6-12.1-5.1-21.4-12.4-27.9-22.1-6.5-9.7-9.8-21.5-9.8-35.4s3.3-25.7,9.8-35.3c6.5-9.6,15.8-17,27.9-22,12.1-5.1,26.4-7.6,43.1-7.6s31.1,2.5,43.1,7.6c12.1,5.1,21.4,12.4,27.9,22,6.5,9.6,9.8,21.4,9.8,35.3s-3.3,25.7-9.8,35.4c-6.5,9.7-15.8,17.1-27.9,22.1-12.1,5.1-26.5,7.6-43.1,7.6ZM1058.9,506.9c7.6,0,14.5-.9,20.8-2.6,6.3-1.7,11.9-4.2,16.5-7.5,4.7-3.3,8.3-7.4,11-12.4,2.6-5,3.9-10.8,3.9-17.4v-4.2c0-6.6-1.3-12.3-3.9-17.3-2.6-4.9-6.3-9-11-12.3-4.7-3.3-10.2-5.8-16.5-7.4-6.3-1.6-13.3-2.5-20.8-2.5s-14.5.8-20.8,2.5c-6.3,1.6-11.9,4.1-16.5,7.4-4.7,3.3-8.3,7.4-10.9,12.3-2.6,4.9-3.8,10.7-3.8,17.3v4.2c0,6.6,1.3,12.4,3.8,17.4,2.6,5,6.2,9.1,10.9,12.4,4.7,3.3,10.2,5.8,16.5,7.5,6.3,1.7,13.3,2.6,20.8,2.6Z"/>
  <path class="st0" d="M980,679.9l62.9-125.6h31.4l62.9,125.6h-30.5l-11.9-24.3h-74.4l-11.9,24.3h-28.5ZM1031.4,633.1h52.5l-14.6-30.7c-.6-1.3-1.5-3.3-2.7-5.9-1.2-2.6-2.3-5.3-3.5-8-1.2-2.7-2.2-5.1-3.1-7.1-.9-2-1.4-3.1-1.6-3.2h-1.5c-1.1,2.4-2.3,5.2-3.7,8.4-1.4,3.2-2.7,6.2-4,9.1-1.3,2.9-2.3,5.2-3.2,6.9l-14.6,30.5Z"/>
</svg>